<svg xmlns="http://www.w3.org/2000/svg" version="1.1" xmlns:xlink="http://www.w3.org/1999/xlink" xmlns:svgjs="http://svgjs.dev/svgjs" width="1000" height="999" viewBox="0 0 1000 999"><g transform="matrix(1,0,0,1,-0.215743440233382,-0.21552769679306039)"><svg viewBox="0 0 343 343" data-background-color="#ffffff" preserveAspectRatio="xMidYMid meet" height="999" width="1000" xmlns="http://www.w3.org/2000/svg" xmlns:xlink="http://www.w3.org/1999/xlink"><g id="tight-bounds" transform="matrix(1,0,0,1,0.0740000000000407,0.07400000000001228)"><svg viewBox="0 0 342.85155851775386 342.85155851775386" height="342.85155851775386" width="342.85155851775386"><g><svg></svg></g><g><svg viewBox="0 0 342.85155851775386 342.85155851775386" height="342.85155851775386" width="342.85155851775386"><g><path d="M0 171.426c0-94.676 76.75-171.426 171.426-171.426 94.676 0 171.426 76.75 171.426 171.426 0 94.676-76.75 171.426-171.426 171.426-94.676 0-171.426-76.75-171.426-171.426zM171.426 339.842c93.014 0 168.416-75.403 168.416-168.416 0-93.014-75.403-168.416-168.416-168.416-93.014 0-168.416 75.403-168.416 168.416 0 93.014 75.403 168.416 168.416 168.416z" data-fill-palette-color="tertiary" fill="#636365" stroke="transparent"></path><ellipse rx="164.56874808852186" ry="164.56874808852186" cx="171.42577925887693" cy="171.42577925887693" fill="#636365" stroke="transparent" stroke-width="0" fill-opacity="1" data-fill-palette-color="tertiary"></ellipse></g><g transform="matrix(1,0,0,1,64.84655864529837,127.74042651205183)"><svg viewBox="0 0 213.1584412271571 87.3707054936502" height="87.3707054936502" width="213.1584412271571"><g><svg viewBox="0 0 213.1584412271571 87.3707054936502" height="87.3707054936502" width="213.1584412271571"><g><svg viewBox="0 0 213.1584412271571 87.3707054936502" height="87.3707054936502" width="213.1584412271571"><g transform="matrix(1,0,0,1,0,53.99860113394094)"><svg viewBox="0 0 213.1584412271571 33.37210435970927" height="33.37210435970927" width="213.1584412271571"><g><svg viewBox="0 0 213.1584412271571 33.37210435970927" height="33.37210435970927" width="213.1584412271571"><g><svg viewBox="0 0 213.1584412271571 33.37210435970927" height="33.37210435970927" width="213.1584412271571"><g transform="matrix(1,0,0,1,0,0)"><svg width="213.1584412271571" viewBox="2.05 -35 226.72 35.5" height="33.37210435970927" data-palette-color="#ffffff"><path d="M2.05 0L2.05-35 10.15-35Q14.25-35 16.3-32.8 18.35-30.6 18.35-26.35L18.35-26.35 18.35-22.9Q18.35-18.65 16.3-16.45 14.25-14.25 10.15-14.25L10.15-14.25 7.55-14.25 7.55 0 2.05 0ZM7.55-19.25L10.15-19.25Q11.5-19.25 12.18-20 12.85-20.75 12.85-22.55L12.85-22.55 12.85-26.7Q12.85-28.5 12.18-29.25 11.5-30 10.15-30L10.15-30 7.55-30 7.55-19.25ZM21.35 0L21.35-35 26.85-35 26.85-5 35.9-5 35.9 0 21.35 0ZM37.3 0L43-35 50.45-35 56.15 0 50.65 0 49.65-6.95 49.65-6.85 43.4-6.85 42.4 0 37.3 0ZM44.05-11.6L49-11.6 46.55-28.9 46.45-28.9 44.05-11.6ZM58.79 0L58.79-35 65.69-35 71.04-14.05 71.14-14.05 71.14-35 76.04-35 76.04 0 70.39 0 63.79-25.55 63.69-25.55 63.69 0 58.79 0ZM80.14 0L80.14-35 95.14-35 95.14-30 85.64-30 85.64-20.75 93.19-20.75 93.19-15.75 85.64-15.75 85.64-5 95.14-5 95.14 0 80.14 0ZM106.29 0L106.29-35 114.59-35Q118.84-35 120.79-33.02 122.74-31.05 122.74-26.95L122.74-26.95 122.74-25.55Q122.74-22.85 121.86-21.15 120.99-19.45 119.19-18.7L119.19-18.7 119.19-18.6Q123.29-17.2 123.29-11.3L123.29-11.3 123.29-8.3Q123.29-4.25 121.16-2.13 119.04 0 114.94 0L114.94 0 106.29 0ZM111.79-20.75L113.94-20.75Q115.59-20.75 116.41-21.6 117.24-22.45 117.24-24.45L117.24-24.45 117.24-26.4Q117.24-28.3 116.56-29.15 115.89-30 114.44-30L114.44-30 111.79-30 111.79-20.75ZM111.79-5L114.94-5Q116.39-5 117.09-5.78 117.79-6.55 117.79-8.45L117.79-8.45 117.79-11.5Q117.79-13.9 116.96-14.83 116.14-15.75 114.24-15.75L114.24-15.75 111.79-15.75 111.79-5ZM134.48 0.5Q130.48 0.5 128.38-1.78 126.28-4.05 126.28-8.3L126.28-8.3 126.28-35 131.78-35 131.78-7.9Q131.78-6.1 132.51-5.3 133.23-4.5 134.58-4.5L134.58-4.5Q135.93-4.5 136.66-5.3 137.38-6.1 137.38-7.9L137.38-7.9 137.38-35 142.68-35 142.68-8.3Q142.68-4.05 140.58-1.78 138.48 0.5 134.48 0.5L134.48 0.5ZM146.58 0L146.58-35 152.08-35 152.08 0 146.58 0ZM156.18 0L156.18-35 161.68-35 161.68-5 170.73-5 170.73 0 156.18 0ZM173.38 0L173.38-35 181.78-35Q185.88-35 187.93-32.8 189.98-30.6 189.98-26.35L189.98-26.35 189.98-8.65Q189.98-4.4 187.93-2.2 185.88 0 181.78 0L181.78 0 173.38 0ZM178.88-5L181.68-5Q183.03-5 183.75-5.8 184.48-6.6 184.48-8.4L184.48-8.4 184.48-26.6Q184.48-28.4 183.75-29.2 183.03-30 181.68-30L181.68-30 178.88-30 178.88-5ZM193.67 0L193.67-35 208.67-35 208.67-30 199.17-30 199.17-20.75 206.72-20.75 206.72-15.75 199.17-15.75 199.17-5 208.67-5 208.67 0 193.67 0ZM211.82 0L211.82-35 219.97-35Q224.22-35 226.17-33.02 228.12-31.05 228.12-26.95L228.12-26.95 228.12-24.8Q228.12-19.35 224.52-17.9L224.52-17.9 224.52-17.8Q226.52-17.2 227.35-15.35 228.17-13.5 228.17-10.4L228.17-10.4 228.17-4.25Q228.17-2.75 228.27-1.83 228.37-0.9 228.77 0L228.77 0 223.17 0Q222.87-0.85 222.77-1.6 222.67-2.35 222.67-4.3L222.67-4.3 222.67-10.7Q222.67-13.1 221.9-14.05 221.12-15 219.22-15L219.22-15 217.32-15 217.32 0 211.82 0ZM217.32-20L219.32-20Q220.97-20 221.8-20.85 222.62-21.7 222.62-23.7L222.62-23.7 222.62-26.4Q222.62-28.3 221.95-29.15 221.27-30 219.82-30L219.82-30 217.32-30 217.32-20Z" opacity="1" transform="matrix(1,0,0,1,0,0)" fill="#ffffff" class="undefined-text-0" data-fill-palette-color="quaternary" id="text-0"></path></svg></g></svg></g></svg></g></svg></g><g transform="matrix(1,0,0,1,83.51883596167215,0)"><svg viewBox="0 0 46.12076930381279 46.12024822511821" height="46.12024822511821" width="46.12076930381279"><g><svg xmlns="http://www.w3.org/2000/svg" xmlns:xlink="http://www.w3.org/1999/xlink" version="1.1" x="0" y="0" viewBox="7.630000000000001 5.865283210724249 88.15171273925867 88.15071678927578" enable-background="new 0 0 100 100" xml:space="preserve" height="46.12024822511821" width="46.12076930381279" class="icon-icon-0" data-fill-palette-color="quaternary" id="icon-0"><path d="M84.553 8.371l-18.58 19.941-45.116-9.266-5.423 5.418 36.186 19.239L26.414 70.741c-0.477 0.52-0.892 1.03-1.274 1.547l-15.982-3.96-1.528 1.53 13.043 8.936-0.798 2.974 2.975-0.797 8.937 13.045 1.53-1.525-3.961-15.993c0.516-0.378 1.032-0.792 1.539-1.267l27.045-25.202 19.24 36.19 5.424-5.427-9.27-45.118 19.936-18.59c2.975-2.764 3.363-7.069 0.865-9.569C91.635 5.014 87.324 5.402 84.553 8.371z" fill="#ffffff" data-fill-palette-color="quaternary"></path></svg></g></svg></g><g></g></svg></g></svg></g></svg></g></svg></g><defs></defs></svg><rect width="342.85155851775386" height="342.85155851775386" fill="none" stroke="none" visibility="hidden"></rect></g></svg></g></svg>