<svg xmlns="http://www.w3.org/2000/svg" version="1.1" xmlns:xlink="http://www.w3.org/1999/xlink" xmlns:svgjs="http://svgjs.dev/svgjs" width="128" height="128" viewBox="0 0 128 128"><g transform="matrix(0.8046875,0,0,0.8046875,12.41184074821259,12.814873242367177)"><svg viewBox="0 0 98 98" data-background-color="#ffffff" preserveAspectRatio="xMidYMid meet" height="127" width="128" xmlns="http://www.w3.org/2000/svg" xmlns:xlink="http://www.w3.org/1999/xlink"><g id="tight-bounds" transform="matrix(1,0,0,1,0.08387967645792571,0.08387967645792571)"><svg viewBox="0 0 97.83224064708415 97.83224064708415" height="97.83224064708415" width="97.83224064708415"><g><svg></svg></g><g><svg viewBox="0 0 97.83224064708415 97.83224064708415" height="97.83224064708415" width="97.83224064708415"><g><path d="M0 48.916c0-27.016 21.9-48.916 48.916-48.916 27.016 0 48.916 21.9 48.916 48.916 0 27.016-21.9 48.916-48.916 48.916-27.016 0-48.916-21.9-48.916-48.916zM48.916 93.244c24.481 0 44.328-19.846 44.328-44.328 0-24.481-19.846-44.328-44.328-44.328-24.481 0-44.328 19.846-44.328 44.328 0 24.481 19.846 44.328 44.328 44.328z" data-fill-palette-color="tertiary" fill="#636365" stroke="transparent"></path><ellipse rx="46.95947551060039" ry="46.95947551060039" cx="48.916120323542074" cy="48.916120323542074" fill="#636365" stroke="transparent" stroke-width="0" fill-opacity="1" data-fill-palette-color="tertiary"></ellipse></g><g transform="matrix(1,0,0,1,23.47539391502934,23.475681347800002)"><svg viewBox="0 0 50.88145281702547 50.880877951484145" height="50.880877951484145" width="50.88145281702547"><g><svg viewBox="0 0 50.88145281702547 50.880877951484145" height="50.880877951484145" width="50.88145281702547"><g><svg viewBox="0 0 50.88145281702547 50.880877951484145" height="50.880877951484145" width="50.88145281702547"><g><svg viewBox="0 0 50.88145281702547 50.880877951484145" height="50.880877951484145" width="50.88145281702547"><g><svg viewBox="0 0 50.88145281702547 50.880877951484145" height="50.880877951484145" width="50.88145281702547"><g><svg viewBox="0 0 50.88145281702547 50.880877951484145" height="50.880877951484145" width="50.88145281702547"><g><svg xmlns="http://www.w3.org/2000/svg" xmlns:xlink="http://www.w3.org/1999/xlink" version="1.1" x="0" y="0" viewBox="7.630000000000001 5.865283210724249 88.15171273925867 88.15071678927578" enable-background="new 0 0 100 100" xml:space="preserve" height="50.880877951484145" width="50.88145281702547" class="icon-icon-0" data-fill-palette-color="quaternary" id="icon-0"><path d="M84.553 8.371l-18.58 19.941-45.116-9.266-5.423 5.418 36.186 19.239L26.414 70.741c-0.477 0.52-0.892 1.03-1.274 1.547l-15.982-3.96-1.528 1.53 13.043 8.936-0.798 2.974 2.975-0.797 8.937 13.045 1.53-1.525-3.961-15.993c0.516-0.378 1.032-0.792 1.539-1.267l27.045-25.202 19.24 36.19 5.424-5.427-9.27-45.118 19.936-18.59c2.975-2.764 3.363-7.069 0.865-9.569C91.635 5.014 87.324 5.402 84.553 8.371z" fill="#ffffff" data-fill-palette-color="quaternary"></path></svg></g></svg></g></svg></g></svg></g></svg></g><g></g></svg></g></svg></g></svg></g><defs></defs></svg><rect width="97.83224064708415" height="97.83224064708415" fill="none" stroke="none" visibility="hidden"></rect></g></svg></g></svg>